<svg xmlns="http://www.w3.org/2000/svg" viewBox="0 0 54.5 26.36"><defs><style>.cls-1{fill:#1d1d1b;}</style></defs><title>Asset 1</title><g id="Layer_2" data-name="Layer 2"><g id="Layer_1-2" data-name="Layer 1"><path class="cls-1" d="M3.13,5.18H0V0H12.51V5.18H9.38V26.36H3.13Z"/><path class="cls-1" d="M17.89,20.82l-.32,5.54H11.16L14,0H24l2.77,26.36H20.26L20,20.82Zm1.78-5.23c-.12-2-.59-8.9-.71-10.33h-.28c0,1.15-.44,7.76-.55,10.33Z"/><path class="cls-1" d="M33.88,15.24V26.36H27.62V0h7.8c5.14,0,6.77,2.61,6.77,6.77v1c0,3-1,4.47-2.54,5.26,1.9.87,2.42,2.34,2.42,6.17,0,3.17,0,6.18.08,7.21h-6.1c-.27-.48-.35-2.3-.35-8.31,0-2.62-.24-2.81-1.51-2.81Zm0-4.67h.47c1,0,1.46-.36,1.46-2V6.45c0-1.46-.35-1.78-1.58-1.78h-.35Z"/><path class="cls-1" d="M45.12,5.18H42V0H54.5V5.18H51.37V26.36H45.12Z"/></g></g></svg>